<svg width="33" height="39" viewBox="0 0 33 39" fill="none" xmlns="http://www.w3.org/2000/svg">
<path d="M27.4194 20.6759C27.3747 15.8414 31.4854 13.4894 31.6734 13.3799C29.3453 10.0754 25.7369 9.62394 24.4689 9.58794C21.4383 9.27744 18.4985 11.3534 16.9547 11.3534C15.3801 11.3534 13.0027 9.61794 10.4405 9.66894C7.14326 9.71844 4.0587 11.5769 2.36697 14.4629C-1.12435 20.3474 1.4795 28.9949 4.82445 33.7514C6.4977 36.0809 8.45289 38.6819 11.0121 38.5904C13.5158 38.4899 14.451 37.0364 17.4724 37.0364C20.4661 37.0364 21.3443 38.5904 23.9543 38.5319C26.6413 38.4899 28.3331 36.1919 29.9478 33.8414C31.8814 31.1714 32.6579 28.5419 32.6887 28.4069C32.6256 28.3859 27.4703 26.4704 27.4194 20.6759Z" fill="white"/>
<path d="M22.489 6.45894C23.8357 4.81944 24.757 2.58894 24.5013 0.325439C22.5522 0.409439 20.1148 1.63794 18.7111 3.24144C17.4693 4.65444 16.36 6.97044 16.6466 9.14844C18.8359 9.30744 21.0839 8.07294 22.489 6.45894Z" fill="white"/>
</svg>
