<svg width="40" height="41" viewBox="0 0 40 41" fill="none" xmlns="http://www.w3.org/2000/svg">
<rect y="0.5" width="40" height="40" rx="20" fill="#FF8C00"/>
<path d="M8.52828 26.8792C8.86663 27.2174 9.32548 27.4075 9.80392 27.4075C10.2824 27.4075 10.7412 27.2174 11.0796 26.8792L20.0109 17.9479L28.9422 26.8792C29.2825 27.2079 29.7383 27.3897 30.2114 27.3856C30.6845 27.3815 31.137 27.1917 31.4715 26.8572C31.8061 26.5227 31.9958 26.0701 31.9999 25.597C32.004 25.124 31.8222 24.6682 31.4935 24.3279L21.2865 14.1209C20.9482 13.7827 20.4893 13.5927 20.0109 13.5927C19.5325 13.5927 19.0736 13.7827 18.7352 14.1209L8.52828 24.3279C8.19002 24.6663 8 25.1251 8 25.6035C8 26.082 8.19002 26.5408 8.52828 26.8792Z" fill="white"/>
</svg>
