<svg width="40" height="41" viewBox="0 0 40 41" fill="none" xmlns="http://www.w3.org/2000/svg">
<rect y="0.5" width="40" height="40" rx="20" fill="#FF8C00"/>
<path d="M31.4717 14.1208C31.1334 13.7826 30.6745 13.5925 30.1961 13.5925C29.7176 13.5925 29.2588 13.7826 28.9204 14.1208L19.9891 23.0521L11.0578 14.1208C10.7175 13.7921 10.2617 13.6103 9.78863 13.6144C9.31554 13.6185 8.863 13.8083 8.52847 14.1428C8.19393 14.4773 8.00418 14.9299 8.00007 15.403C7.99596 15.876 8.17782 16.3318 8.50649 16.6721L18.7135 26.8791C19.0518 27.2173 19.5107 27.4073 19.9891 27.4073C20.4675 27.4073 20.9264 27.2173 21.2648 26.8791L31.4717 16.6721C31.81 16.3337 32 15.8749 32 15.3965C32 14.918 31.81 14.4592 31.4717 14.1208Z" fill="white"/>
</svg>
