<svg width="48" height="47" viewBox="0 0 48 47" fill="none" xmlns="http://www.w3.org/2000/svg">
<path d="M43.2979 0.980469H3.93617C2.89223 0.980469 1.89105 1.38138 1.15288 2.095C0.414702 2.80862 0 3.77649 0 4.78571V42.8381C0 43.8473 0.414702 44.8152 1.15288 45.5288C1.89105 46.2424 2.89223 46.6433 3.93617 46.6433H43.2979C44.3418 46.6433 45.343 46.2424 46.0812 45.5288C46.8193 44.8152 47.234 43.8473 47.234 42.8381V4.78571C47.234 3.77649 46.8193 2.80862 46.0812 2.095C45.343 1.38138 44.3418 0.980469 43.2979 0.980469ZM36.818 33.8815C37.0008 34.0583 37.1459 34.2681 37.2448 34.4991C37.3438 34.7301 37.3947 34.9776 37.3947 35.2276C37.3947 35.4776 37.3438 35.7251 37.2448 35.9561C37.1459 36.1871 37.0008 36.3969 36.818 36.5737C36.6351 36.7505 36.418 36.8907 36.1791 36.9864C35.9402 37.082 35.6841 37.1313 35.4255 37.1313C35.1669 37.1313 34.9109 37.082 34.672 36.9864C34.433 36.8907 34.216 36.7505 34.0331 36.5737L23.617 26.5017L13.2009 36.5737C12.8316 36.9307 12.3308 37.1313 11.8085 37.1313C11.2863 37.1313 10.7854 36.9307 10.4161 36.5737C10.0468 36.2167 9.83933 35.7325 9.83933 35.2276C9.83933 34.7227 10.0468 34.2385 10.4161 33.8815L20.8346 23.8119L10.4161 13.7423C10.0468 13.3853 9.83933 12.9011 9.83933 12.3962C9.83933 11.8913 10.0468 11.4071 10.4161 11.0501C10.7854 10.6931 11.2863 10.4925 11.8085 10.4925C12.3308 10.4925 12.8316 10.6931 13.2009 11.0501L23.617 21.1221L34.0331 11.0501C34.4024 10.6931 34.9033 10.4925 35.4255 10.4925C35.9478 10.4925 36.4487 10.6931 36.818 11.0501C37.1872 11.4071 37.3947 11.8913 37.3947 12.3962C37.3947 12.9011 37.1872 13.3853 36.818 13.7423L26.3994 23.8119L36.818 33.8815Z" fill="#FF8C00"/>
</svg>
