<svg width="30" height="30" viewBox="0 0 30 30" fill="none" xmlns="http://www.w3.org/2000/svg">
<path d="M27.5 0.351807H2.5C1.83696 0.351807 1.20107 0.610457 0.732233 1.07086C0.263392 1.53126 0 2.15569 0 2.8068V27.3567C0 28.0078 0.263392 28.6323 0.732233 29.0927C1.20107 29.5531 1.83696 29.8117 2.5 29.8117H27.5C28.163 29.8117 28.7989 29.5531 29.2678 29.0927C29.7366 28.6323 30 28.0078 30 27.3567V2.8068C30 2.15569 29.7366 1.53126 29.2678 1.07086C28.7989 0.610457 28.163 0.351807 27.5 0.351807ZM23.3844 21.5783C23.5005 21.6923 23.5926 21.8277 23.6555 21.9767C23.7183 22.1257 23.7507 22.2854 23.7507 22.4467C23.7507 22.608 23.7183 22.7677 23.6555 22.9167C23.5926 23.0657 23.5005 23.2011 23.3844 23.3152C23.2682 23.4292 23.1304 23.5197 22.9786 23.5814C22.8269 23.6431 22.6642 23.6749 22.5 23.6749C22.3358 23.6749 22.1731 23.6431 22.0214 23.5814C21.8696 23.5197 21.7318 23.4292 21.6156 23.3152L15 16.8171L8.38438 23.3152C8.14983 23.5455 7.83171 23.6749 7.5 23.6749C7.16829 23.6749 6.85018 23.5455 6.61562 23.3152C6.38107 23.0849 6.24931 22.7725 6.2493 22.4467C6.2493 22.121 6.38107 21.8086 6.61562 21.5783L13.2328 15.0818L6.61562 8.58524C6.38107 8.35491 6.2493 8.04252 6.2493 7.71678C6.24931 7.39105 6.38107 7.07866 6.61563 6.84833C6.85018 6.618 7.16829 6.4886 7.5 6.4886C7.83171 6.4886 8.14983 6.618 8.38438 6.84833L15 13.3464L21.6156 6.84833C21.8502 6.618 22.1683 6.4886 22.5 6.4886C22.8317 6.4886 23.1498 6.618 23.3844 6.84833C23.6189 7.07866 23.7507 7.39105 23.7507 7.71678C23.7507 8.04252 23.6189 8.35491 23.3844 8.58524L16.7672 15.0818L23.3844 21.5783Z" fill="#FF8C00"/>
</svg>
