<svg width="25" height="24" viewBox="0 0 25 24" fill="none" xmlns="http://www.w3.org/2000/svg">
<path fill-rule="evenodd" clip-rule="evenodd" d="M2.9 12C2.90017 10.1525 3.43342 8.34437 4.43575 6.79246C5.43808 5.24055 6.86691 4.01081 8.55081 3.25082C10.2347 2.49082 12.1021 2.23285 13.929 2.50785C15.7559 2.78285 17.4646 3.57915 18.8501 4.80119C20.2357 6.02323 21.2392 7.61911 21.7402 9.39733C22.2412 11.1755 22.2185 13.0606 21.6748 14.8262C21.1311 16.5918 20.0895 18.1631 18.6749 19.3514C17.2604 20.5397 15.533 21.2947 13.7 21.5256V14.4H16.1C16.4183 14.4 16.7235 14.2736 16.9485 14.0485C17.1736 13.8235 17.3 13.5183 17.3 13.2C17.3 12.8817 17.1736 12.5765 16.9485 12.3515C16.7235 12.1264 16.4183 12 16.1 12H13.7V9.6C13.7 9.28174 13.8264 8.97652 14.0515 8.75147C14.2765 8.52643 14.5817 8.4 14.9 8.4H15.5C15.8183 8.4 16.1235 8.27357 16.3485 8.04853C16.5736 7.82348 16.7 7.51826 16.7 7.2C16.7 6.88174 16.5736 6.57652 16.3485 6.35147C16.1235 6.12643 15.8183 6 15.5 6H14.9C13.9452 6 13.0295 6.37928 12.3544 7.05442C11.6793 7.72955 11.3 8.64522 11.3 9.6V12H8.9C8.58174 12 8.27652 12.1264 8.05147 12.3515C7.82643 12.5765 7.7 12.8817 7.7 13.2C7.7 13.5183 7.82643 13.8235 8.05147 14.0485C8.27652 14.2736 8.58174 14.4 8.9 14.4H11.3V21.5256C8.97994 21.2333 6.84633 20.1042 5.2997 18.3504C3.75308 16.5965 2.89978 14.3384 2.9 12ZM12.5 24C19.1276 24 24.5 18.6276 24.5 12C24.5 5.3724 19.1276 0 12.5 0C5.8724 0 0.5 5.3724 0.5 12C0.5 18.6276 5.8724 24 12.5 24Z" fill="white"/>
</svg>
