<svg width="25" height="24" viewBox="0 0 25 24" fill="none" xmlns="http://www.w3.org/2000/svg">
<path d="M12.5012 8.4C11.5464 8.4 10.6307 8.77928 9.95562 9.45442C9.28049 10.1295 8.9012 11.0452 8.9012 12C8.9012 12.9548 9.28049 13.8705 9.95562 14.5456C10.6307 15.2207 11.5464 15.6 12.5012 15.6C13.456 15.6 14.3717 15.2207 15.0468 14.5456C15.7219 13.8705 16.1012 12.9548 16.1012 12C16.1012 11.0452 15.7219 10.1295 15.0468 9.45442C14.3717 8.77928 13.456 8.4 12.5012 8.4ZM12.5012 6C14.0925 6 15.6186 6.63214 16.7438 7.75736C17.8691 8.88258 18.5012 10.4087 18.5012 12C18.5012 13.5913 17.8691 15.1174 16.7438 16.2426C15.6186 17.3679 14.0925 18 12.5012 18C10.9099 18 9.38378 17.3679 8.25856 16.2426C7.13334 15.1174 6.5012 13.5913 6.5012 12C6.5012 10.4087 7.13334 8.88258 8.25856 7.75736C9.38378 6.63214 10.9099 6 12.5012 6ZM20.3012 5.7C20.3012 6.09783 20.1432 6.47936 19.8619 6.76066C19.5806 7.04197 19.199 7.2 18.8012 7.2C18.4034 7.2 18.0218 7.04197 17.7405 6.76066C17.4592 6.47936 17.3012 6.09783 17.3012 5.7C17.3012 5.30218 17.4592 4.92064 17.7405 4.63934C18.0218 4.35804 18.4034 4.2 18.8012 4.2C19.199 4.2 19.5806 4.35804 19.8619 4.63934C20.1432 4.92064 20.3012 5.30218 20.3012 5.7ZM12.5012 2.4C9.5324 2.4 9.0476 2.4084 7.6664 2.4696C6.7256 2.514 6.0944 2.64 5.5088 2.868C5.019 3.04844 4.57607 3.33676 4.2128 3.7116C3.83753 4.07474 3.54879 4.51769 3.368 5.0076C3.14 5.5956 3.014 6.2256 2.9708 7.1652C2.9084 8.49 2.9 8.9532 2.9 12C2.9 14.97 2.9084 15.4536 2.9696 16.8348C3.014 17.7744 3.14 18.4068 3.3668 18.9912C3.5708 19.5132 3.8108 19.8888 4.2092 20.2872C4.6136 20.6904 4.9892 20.9316 5.5052 21.1308C6.098 21.36 6.7292 21.4872 7.6652 21.5304C8.99 21.5928 9.4532 21.6 12.5 21.6C15.47 21.6 15.9536 21.5916 17.3348 21.5304C18.2732 21.486 18.9044 21.36 19.4912 21.1332C19.981 20.9528 20.4239 20.6644 20.7872 20.2896C21.1916 19.8864 21.4328 19.5108 21.632 18.9936C21.86 18.4032 21.9872 17.772 22.0304 16.8336C22.0928 15.51 22.1 15.0456 22.1 12C22.1 9.0312 22.0916 8.5464 22.0304 7.1652C21.986 6.2268 21.8588 5.5932 21.632 5.0076C21.4516 4.5178 21.1632 4.07487 20.7884 3.7116C20.4253 3.33633 19.9823 3.04759 19.4924 2.8668C18.9044 2.6388 18.2732 2.5128 17.3348 2.4696C16.0112 2.4072 15.548 2.4 12.5 2.4M12.5 0C15.7604 0 16.1672 0.0119999 17.4476 0.0719999C18.7244 0.132 19.5956 0.3324 20.36 0.63C21.152 0.9348 21.8192 1.3476 22.4864 2.0136C23.0968 2.61328 23.569 3.33897 23.87 4.14C24.1664 4.9044 24.368 5.7756 24.428 7.0536C24.4844 8.3328 24.5 8.7396 24.5 12C24.5 15.2604 24.488 15.6672 24.428 16.9464C24.368 18.2256 24.1664 19.0944 23.87 19.86C23.569 20.661 23.0968 21.3867 22.4864 21.9864C21.8867 22.5968 21.161 23.069 20.36 23.37C19.5956 23.6664 18.7244 23.868 17.4476 23.928C16.1672 23.9844 15.7604 24 12.5 24C9.2396 24 8.8328 23.988 7.5524 23.928C6.2756 23.868 5.4056 23.6664 4.64 23.37C3.83897 23.069 3.11328 22.5968 2.5136 21.9864C1.90317 21.3867 1.43098 20.661 1.13 19.86C0.8324 19.0956 0.632 18.2244 0.572 16.9464C0.5144 15.6672 0.5 15.2604 0.5 12C0.5 8.7396 0.512 8.3328 0.572 7.0536C0.632 5.7744 0.8324 4.9056 1.13 4.14C1.43098 3.33897 1.90317 2.61328 2.5136 2.0136C3.11328 1.40317 3.83897 0.930979 4.64 0.63C5.4044 0.3324 6.2744 0.132 7.5524 0.0719999C8.834 0.0155999 9.2408 0 12.5012 0" fill="white"/>
</svg>
