<svg width="25" height="24" viewBox="0 0 25 24" fill="none" xmlns="http://www.w3.org/2000/svg">
<path d="M20.5 0C21.5609 0 22.5783 0.421427 23.3284 1.17157C24.0786 1.92172 24.5 2.93913 24.5 4V20C24.5 21.0609 24.0786 22.0783 23.3284 22.8284C22.5783 23.5786 21.5609 24 20.5 24H4.5C3.43913 24 2.42172 23.5786 1.67157 22.8284C0.921427 22.0783 0.5 21.0609 0.5 20V4C0.5 2.93913 0.921427 1.92172 1.67157 1.17157C2.42172 0.421427 3.43913 0 4.5 0H20.5ZM20.5 2.66667H4.5C4.14638 2.66667 3.80724 2.80714 3.55719 3.05719C3.30714 3.30724 3.16667 3.64638 3.16667 4V20C3.16667 20.3536 3.30714 20.6928 3.55719 20.9428C3.80724 21.1929 4.14638 21.3333 4.5 21.3333H20.5C20.8536 21.3333 21.1928 21.1929 21.4428 20.9428C21.6929 20.6928 21.8333 20.3536 21.8333 20V4C21.8333 3.64638 21.6929 3.30724 21.4428 3.05719C21.1928 2.80714 20.8536 2.66667 20.5 2.66667ZM7.16667 9.33333C7.49324 9.33338 7.80845 9.45327 8.0525 9.67029C8.29654 9.8873 8.45246 10.1863 8.49067 10.5107L8.5 10.6667V17.3333C8.49962 17.6732 8.36949 18 8.1362 18.2472C7.90291 18.4943 7.58406 18.643 7.24481 18.6629C6.90555 18.6828 6.57149 18.5724 6.31089 18.3543C6.05029 18.1362 5.8828 17.8268 5.84267 17.4893L5.83333 17.3333V10.6667C5.83333 10.313 5.97381 9.97391 6.22386 9.72386C6.47391 9.47381 6.81305 9.33333 7.16667 9.33333ZM11.1667 8C11.4789 7.99995 11.7813 8.1095 12.0211 8.30955C12.2608 8.5096 12.4228 8.78745 12.4787 9.09467C12.7472 8.93957 13.0246 8.80023 13.3093 8.67733C14.1987 8.29733 15.5307 8.088 16.7333 8.46533C17.364 8.66533 17.9973 9.03867 18.4667 9.67467C18.8867 10.2413 19.1133 10.9307 19.1587 11.7053L19.1667 12V17.3333C19.1663 17.6732 19.0362 18 18.8029 18.2472C18.5696 18.4943 18.2507 18.643 17.9115 18.6629C17.5722 18.6828 17.2382 18.5724 16.9776 18.3543C16.717 18.1362 16.5495 17.8268 16.5093 17.4893L16.5 17.3333V12C16.5 11.56 16.3933 11.3547 16.324 11.26C16.2244 11.1363 16.0873 11.0484 15.9333 11.0093C15.4693 10.8627 14.8013 10.94 14.3573 11.1293C13.6907 11.4147 13.08 11.8627 12.664 12.2773L12.5 12.4533V17.3333C12.4996 17.6732 12.3695 18 12.1362 18.2472C11.9029 18.4943 11.5841 18.643 11.2448 18.6629C10.9056 18.6828 10.5715 18.5724 10.3109 18.3543C10.0503 18.1362 9.8828 17.8268 9.84267 17.4893L9.83333 17.3333V9.33333C9.83333 8.97971 9.97381 8.64057 10.2239 8.39052C10.4739 8.14048 10.813 8 11.1667 8ZM7.16667 5.33333C7.52029 5.33333 7.85943 5.47381 8.10948 5.72386C8.35952 5.97391 8.5 6.31305 8.5 6.66667C8.5 7.02029 8.35952 7.35943 8.10948 7.60948C7.85943 7.85952 7.52029 8 7.16667 8C6.81305 8 6.47391 7.85952 6.22386 7.60948C5.97381 7.35943 5.83333 7.02029 5.83333 6.66667C5.83333 6.31305 5.97381 5.97391 6.22386 5.72386C6.47391 5.47381 6.81305 5.33333 7.16667 5.33333Z" fill="white"/>
</svg>
