<svg width="41" height="40" viewBox="0 0 41 40" fill="none" xmlns="http://www.w3.org/2000/svg">
<rect x="0.5" width="40" height="40" rx="5.2" fill="#FF8C00"/>
<path d="M35.2342 6.74018L17.5542 8.81758V11.1602H35.2342V12.6335H17.5542V20.0002H35.2342C35.2342 22.6669 34.3944 25.0979 32.759 27.2932C31.1236 29.4884 29.002 31.0944 26.3942 32.1552V34.7335H14.6076V32.1552C12.0145 31.0944 9.87818 29.4737 8.24278 27.2932C6.60738 25.1126 5.76758 22.6669 5.76758 20.0002H10.1876V8.21351L35.2342 5.26685V6.74018ZM11.6609 9.51005V11.1602H13.1342V9.36271L11.6609 9.51005ZM11.6609 12.6335V20.0002H13.1342V12.6335H11.6609ZM16.0809 20.0002V12.6335H14.6076V20.0002H16.0809ZM16.0809 11.1602V9.02385L14.6076 9.15645V11.1602H16.0809Z" fill="white"/>
</svg>
