<svg width="40" height="40" viewBox="0 0 40 40" fill="none" xmlns="http://www.w3.org/2000/svg">
<rect width="40" height="40" rx="5.2" fill="#FF8C00"/>
<path d="M34.7342 6.74018L17.0542 8.81758V11.1602H34.7342V12.6335H17.0542V20.0002H34.7342C34.7342 22.6669 33.8944 25.0979 32.259 27.2932C30.6236 29.4884 28.502 31.0944 25.8942 32.1552V34.7335H14.1076V32.1552C11.5145 31.0944 9.37818 29.4737 7.74278 27.2932C6.10738 25.1126 5.26758 22.6669 5.26758 20.0002H9.68758V8.21351L34.7342 5.26685V6.74018ZM11.1609 9.51005V11.1602H12.6342V9.36271L11.1609 9.51005ZM11.1609 12.6335V20.0002H12.6342V12.6335H11.1609ZM15.5809 20.0002V12.6335H14.1076V20.0002H15.5809ZM15.5809 11.1602V9.02385L14.1076 9.15645V11.1602H15.5809Z" fill="white"/>
</svg>
