<svg width="25" height="24" viewBox="0 0 25 24" fill="none" xmlns="http://www.w3.org/2000/svg">
<g clip-path="url(#clip0_878_346)">
<path fill-rule="evenodd" clip-rule="evenodd" d="M11.4202 2.86801C11.5303 2.67917 11.6879 2.52248 11.8774 2.41358C12.0669 2.30468 12.2817 2.24738 12.5002 2.24738C12.7188 2.24738 12.9335 2.30468 13.123 2.41358C13.3125 2.52248 13.4702 2.67917 13.5802 2.86801L16.3752 7.66601L21.8032 8.84201C22.0167 8.88841 22.2144 8.98996 22.3764 9.13654C22.5384 9.28313 22.6592 9.46962 22.7267 9.67743C22.7942 9.88525 22.806 10.1071 22.761 10.3209C22.716 10.5347 22.6157 10.733 22.4702 10.896L18.7702 15.037L19.3302 20.562C19.3523 20.7796 19.317 20.9991 19.2277 21.1987C19.1384 21.3983 18.9983 21.571 18.8214 21.6996C18.6444 21.8281 18.4369 21.908 18.2195 21.9312C18.002 21.9545 17.7823 21.9203 17.5822 21.832L12.5002 19.592L7.41823 21.832C7.21815 21.9203 6.99842 21.9545 6.78098 21.9312C6.56355 21.908 6.35601 21.8281 6.1791 21.6996C6.00219 21.571 5.86209 21.3983 5.7728 21.1987C5.6835 20.9991 5.64814 20.7796 5.67023 20.562L6.23023 15.037L2.53023 10.897C2.38446 10.734 2.28398 10.5357 2.23884 10.3217C2.1937 10.1078 2.20547 9.88574 2.27297 9.67777C2.34048 9.46979 2.46135 9.28316 2.62354 9.13651C2.78572 8.98986 2.98353 8.88831 3.19723 8.84201L8.62523 7.66601L11.4202 2.86801ZM12.5002 4.98701L10.1872 8.95901C10.0998 9.10893 9.98205 9.239 9.84156 9.34092C9.70107 9.44285 9.54089 9.51439 9.37123 9.55101L4.87923 10.524L7.94123 13.951C8.17523 14.213 8.28823 14.561 8.25323 14.91L7.79023 19.483L11.9962 17.629C12.155 17.559 12.3267 17.5229 12.5002 17.5229C12.6738 17.5229 12.8454 17.559 13.0042 17.629L17.2102 19.483L16.7472 14.91C16.7296 14.7373 16.7482 14.5629 16.8018 14.3978C16.8553 14.2327 16.9426 14.0805 17.0582 13.951L20.1212 10.524L15.6292 9.55101C15.4596 9.51439 15.2994 9.44285 15.1589 9.34092C15.0184 9.239 14.9007 9.10893 14.8132 8.95901L12.5002 4.98701Z" fill="#FFE8CC"/>
</g>
<defs>
<clipPath id="clip0_878_346">
<rect width="24" height="24" fill="white" transform="translate(0.5)"/>
</clipPath>
</defs>
</svg>
